<svg xmlns="http://www.w3.org/2000/svg" xmlns:xlink="http://www.w3.org/1999/xlink" width="500" zoomAndPan="magnify" viewBox="0 0 375 374.999991" height="500" preserveAspectRatio="xMidYMid meet" version="1.0"><defs><clipPath id="885da64bcc"><path d="M 1.519531 2.347656 L 371.820312 2.347656 L 371.820312 372.652344 L 1.519531 372.652344 Z M 1.519531 2.347656 " clip-rule="nonzero"/></clipPath><clipPath id="e61ce9c81f"><path d="M 186.667969 2.347656 C 84.414062 2.347656 1.519531 85.242188 1.519531 187.5 C 1.519531 289.757812 84.414062 372.652344 186.667969 372.652344 C 288.925781 372.652344 371.820312 289.757812 371.820312 187.5 C 371.820312 85.242188 288.925781 2.347656 186.667969 2.347656 Z M 186.667969 2.347656 " clip-rule="nonzero"/></clipPath><clipPath id="8fffbed3b4"><path d="M 0.519531 0.347656 L 370.820312 0.347656 L 370.820312 370.652344 L 0.519531 370.652344 Z M 0.519531 0.347656 " clip-rule="nonzero"/></clipPath><clipPath id="c4c8e7e013"><path d="M 185.667969 0.347656 C 83.414062 0.347656 0.519531 83.242188 0.519531 185.5 C 0.519531 287.757812 83.414062 370.652344 185.667969 370.652344 C 287.925781 370.652344 370.820312 287.757812 370.820312 185.5 C 370.820312 83.242188 287.925781 0.347656 185.667969 0.347656 Z M 185.667969 0.347656 " clip-rule="nonzero"/></clipPath><clipPath id="3ef28d91b7"><rect x="0" width="371" y="0" height="371"/></clipPath><clipPath id="34dd6e5007"><path d="M 23.734375 24.566406 L 349.601562 24.566406 L 349.601562 350.433594 L 23.734375 350.433594 Z M 23.734375 24.566406 " clip-rule="nonzero"/></clipPath><clipPath id="29c02395ba"><path d="M 186.667969 24.566406 C 96.683594 24.566406 23.734375 97.515625 23.734375 187.5 C 23.734375 277.484375 96.683594 350.433594 186.667969 350.433594 C 276.65625 350.433594 349.601562 277.484375 349.601562 187.5 C 349.601562 97.515625 276.65625 24.566406 186.667969 24.566406 Z M 186.667969 24.566406 " clip-rule="nonzero"/></clipPath><clipPath id="7f2c4156f9"><path d="M 0.734375 0.566406 L 326.601562 0.566406 L 326.601562 326.433594 L 0.734375 326.433594 Z M 0.734375 0.566406 " clip-rule="nonzero"/></clipPath><clipPath id="f2f60e8827"><path d="M 163.667969 0.566406 C 73.683594 0.566406 0.734375 73.515625 0.734375 163.5 C 0.734375 253.484375 73.683594 326.433594 163.667969 326.433594 C 253.65625 326.433594 326.601562 253.484375 326.601562 163.5 C 326.601562 73.515625 253.65625 0.566406 163.667969 0.566406 Z M 163.667969 0.566406 " clip-rule="nonzero"/></clipPath><clipPath id="e2c238eeae"><rect x="0" width="327" y="0" height="327"/></clipPath><clipPath id="a2437f045c"><path d="M 79.140625 2.347656 L 294.199219 2.347656 L 294.199219 372.816406 L 79.140625 372.816406 Z M 79.140625 2.347656 " clip-rule="nonzero"/></clipPath><clipPath id="36f6b3a477"><path d="M 186.667969 2.347656 C 127.28125 2.347656 79.140625 85.242188 79.140625 187.5 C 79.140625 289.757812 127.28125 372.652344 186.667969 372.652344 C 246.054688 372.652344 294.199219 289.757812 294.199219 187.5 C 294.199219 85.242188 246.054688 2.347656 186.667969 2.347656 Z M 186.667969 2.347656 " clip-rule="nonzero"/></clipPath><clipPath id="160cb9eb07"><path d="M 0.140625 0.347656 L 215.199219 0.347656 L 215.199219 370.71875 L 0.140625 370.71875 Z M 0.140625 0.347656 " clip-rule="nonzero"/></clipPath><clipPath id="10e118be6a"><path d="M 107.667969 0.347656 C 48.28125 0.347656 0.140625 83.242188 0.140625 185.5 C 0.140625 287.757812 48.28125 370.652344 107.667969 370.652344 C 167.054688 370.652344 215.199219 287.757812 215.199219 185.5 C 215.199219 83.242188 167.054688 0.347656 107.667969 0.347656 Z M 107.667969 0.347656 " clip-rule="nonzero"/></clipPath><clipPath id="e6b2395cc1"><rect x="0" width="216" y="0" height="371"/></clipPath><clipPath id="75b1fa2ce1"><path d="M 32 141 L 295 141 L 295 314 L 32 314 Z M 32 141 " clip-rule="nonzero"/></clipPath><clipPath id="053dc8a2ed"><path d="M 32.039062 274.824219 L 272.609375 141.109375 L 294.199219 179.949219 L 53.628906 313.664062 Z M 32.039062 274.824219 " clip-rule="nonzero"/></clipPath><clipPath id="e967cc895d"><path d="M 0 0 L 262.238281 0 L 262.238281 172.679688 L 0 172.679688 Z M 0 0 " clip-rule="nonzero"/></clipPath><clipPath id="8d3388ee25"><path d="M 0.0390625 133.824219 L 240.609375 0.109375 L 262.199219 38.949219 L 21.628906 172.664062 Z M 0.0390625 133.824219 " clip-rule="nonzero"/></clipPath><clipPath id="ffc03c737b"><rect x="0" width="263" y="0" height="173"/></clipPath><clipPath id="235a93ae03"><path d="M 79 60 L 341 60 L 341 233 L 79 233 Z M 79 60 " clip-rule="nonzero"/></clipPath><clipPath id="afcc90f6c1"><path d="M 79.144531 194.050781 L 318.90625 60.785156 L 340.496094 99.625 L 100.730469 232.890625 Z M 79.144531 194.050781 " clip-rule="nonzero"/></clipPath><clipPath id="4cf2adbbd6"><path d="M 0 0.71875 L 261.558594 0.71875 L 261.558594 173 L 0 173 Z M 0 0.71875 " clip-rule="nonzero"/></clipPath><clipPath id="ce4e9fda7a"><path d="M 0.144531 134.050781 L 239.90625 0.785156 L 261.496094 39.625 L 21.730469 172.890625 Z M 0.144531 134.050781 " clip-rule="nonzero"/></clipPath><clipPath id="b656afbf6f"><rect x="0" width="262" y="0" height="173"/></clipPath><clipPath id="064bfebb68"><path d="M 90 120 L 283 120 L 283 255 L 90 255 Z M 90 120 " clip-rule="nonzero"/></clipPath><clipPath id="db9f46231d"><path d="M 90.101562 215.464844 L 260.613281 120.6875 L 282.203125 159.527344 L 111.691406 254.304688 Z M 90.101562 215.464844 " clip-rule="nonzero"/></clipPath><clipPath id="3911b4563e"><path d="M 0 0.480469 L 192.238281 0.480469 L 192.238281 134.398438 L 0 134.398438 Z M 0 0.480469 " clip-rule="nonzero"/></clipPath><clipPath id="a13b2945d5"><path d="M 0.101562 95.464844 L 170.613281 0.6875 L 192.203125 39.527344 L 21.691406 134.304688 Z M 0.101562 95.464844 " clip-rule="nonzero"/></clipPath><clipPath id="16a21170a9"><rect x="0" width="193" y="0" height="135"/></clipPath><clipPath id="d440de1161"><path d="M 100.832031 25.6875 L 271.46875 25.6875 L 271.46875 349.628906 L 100.832031 349.628906 Z M 100.832031 25.6875 " clip-rule="nonzero"/></clipPath><clipPath id="dea405d035"><path d="M 186.148438 25.6875 C 139.03125 25.6875 100.832031 98.132812 100.832031 187.5 C 100.832031 276.867188 139.03125 349.3125 186.148438 349.3125 C 233.269531 349.3125 271.46875 276.867188 271.46875 187.5 C 271.46875 98.132812 233.269531 25.6875 186.148438 25.6875 Z M 186.148438 25.6875 " clip-rule="nonzero"/></clipPath><clipPath id="b213c3a402"><path d="M 0.832031 0.6875 L 171.46875 0.6875 L 171.46875 324.441406 L 0.832031 324.441406 Z M 0.832031 0.6875 " clip-rule="nonzero"/></clipPath><clipPath id="33a0b58b47"><path d="M 86.148438 0.6875 C 39.03125 0.6875 0.832031 73.132812 0.832031 162.5 C 0.832031 251.867188 39.03125 324.3125 86.148438 324.3125 C 133.269531 324.3125 171.46875 251.867188 171.46875 162.5 C 171.46875 73.132812 133.269531 0.6875 86.148438 0.6875 Z M 86.148438 0.6875 " clip-rule="nonzero"/></clipPath><clipPath id="52cf23b774"><rect x="0" width="172" y="0" height="325"/></clipPath><clipPath id="edc39808e6"><path d="M 193.007812 112.832031 L 224.484375 112.832031 L 224.484375 142.457031 L 193.007812 142.457031 Z M 193.007812 112.832031 " clip-rule="nonzero"/></clipPath><clipPath id="0465d57fd0"><path d="M 208.71875 112.832031 C 200.042969 112.832031 193.007812 119.464844 193.007812 127.644531 C 193.007812 135.828125 200.042969 142.457031 208.71875 142.457031 C 217.398438 142.457031 224.433594 135.828125 224.433594 127.644531 C 224.433594 119.464844 217.398438 112.832031 208.71875 112.832031 Z M 208.71875 112.832031 " clip-rule="nonzero"/></clipPath><clipPath id="555a1aed4b"><path d="M 0.0078125 0.832031 L 31.484375 0.832031 L 31.484375 30.457031 L 0.0078125 30.457031 Z M 0.0078125 0.832031 " clip-rule="nonzero"/></clipPath><clipPath id="d41f73b7f1"><path d="M 15.71875 0.832031 C 7.042969 0.832031 0.0078125 7.464844 0.0078125 15.644531 C 0.0078125 23.828125 7.042969 30.457031 15.71875 30.457031 C 24.398438 30.457031 31.433594 23.828125 31.433594 15.644531 C 31.433594 7.464844 24.398438 0.832031 15.71875 0.832031 Z M 15.71875 0.832031 " clip-rule="nonzero"/></clipPath><clipPath id="dfb4d12a0d"><rect x="0" width="32" y="0" height="31"/></clipPath><clipPath id="b6bd21c903"><path d="M 158 229 L 189 229 L 189 259 L 158 259 Z M 158 229 " clip-rule="nonzero"/></clipPath><clipPath id="d610144125"><path d="M 159.078125 229.027344 L 188.695312 229.722656 L 187.996094 259.339844 L 158.382812 258.640625 Z M 159.078125 229.027344 " clip-rule="nonzero"/></clipPath><clipPath id="dd205bc596"><path d="M 173.886719 229.375 C 165.707031 229.183594 158.921875 235.65625 158.730469 243.835938 C 158.539062 252.011719 165.011719 258.796875 173.191406 258.992188 C 181.367188 259.183594 188.152344 252.707031 188.347656 244.53125 C 188.539062 236.351562 182.0625 229.566406 173.886719 229.375 Z M 173.886719 229.375 " clip-rule="nonzero"/></clipPath><clipPath id="d229acec1c"><path d="M 0.398438 0 L 30.640625 0 L 30.640625 30 L 0.398438 30 Z M 0.398438 0 " clip-rule="nonzero"/></clipPath><clipPath id="534df22182"><path d="M 1.078125 0.0273438 L 30.695312 0.722656 L 29.996094 30.339844 L 0.382812 29.640625 Z M 1.078125 0.0273438 " clip-rule="nonzero"/></clipPath><clipPath id="f80fdecc34"><path d="M 15.886719 0.375 C 7.707031 0.183594 0.921875 6.65625 0.730469 14.835938 C 0.539062 23.011719 7.011719 29.796875 15.191406 29.992188 C 23.367188 30.183594 30.152344 23.707031 30.347656 15.53125 C 30.539062 7.351562 24.0625 0.566406 15.886719 0.375 Z M 15.886719 0.375 " clip-rule="nonzero"/></clipPath><clipPath id="251a47d4d4"><rect x="0" width="31" y="0" height="30"/></clipPath><clipPath id="b8ad0a20c7"><path d="M 155.238281 153.847656 L 218.101562 153.847656 L 218.101562 216.710938 L 155.238281 216.710938 Z M 155.238281 153.847656 " clip-rule="nonzero"/></clipPath><clipPath id="da8ea1ac4e"><path d="M 186.667969 153.847656 C 169.308594 153.847656 155.238281 167.917969 155.238281 185.277344 C 155.238281 202.636719 169.308594 216.710938 186.667969 216.710938 C 204.027344 216.710938 218.101562 202.636719 218.101562 185.277344 C 218.101562 167.917969 204.027344 153.847656 186.667969 153.847656 Z M 186.667969 153.847656 " clip-rule="nonzero"/></clipPath><clipPath id="3076feebd6"><path d="M 0.238281 0.847656 L 63.101562 0.847656 L 63.101562 63.710938 L 0.238281 63.710938 Z M 0.238281 0.847656 " clip-rule="nonzero"/></clipPath><clipPath id="5f300afd88"><path d="M 31.667969 0.847656 C 14.308594 0.847656 0.238281 14.917969 0.238281 32.277344 C 0.238281 49.636719 14.308594 63.710938 31.667969 63.710938 C 49.027344 63.710938 63.101562 49.636719 63.101562 32.277344 C 63.101562 14.917969 49.027344 0.847656 31.667969 0.847656 Z M 31.667969 0.847656 " clip-rule="nonzero"/></clipPath><clipPath id="2f054554ee"><rect x="0" width="64" y="0" height="64"/></clipPath><clipPath id="7d980c85a4"><path d="M 58.152344 181.5 L 76.042969 181.5 L 76.042969 199.386719 L 58.152344 199.386719 Z M 58.152344 181.5 " clip-rule="nonzero"/></clipPath><clipPath id="645b326bff"><path d="M 67.097656 181.5 C 62.15625 181.5 58.152344 185.503906 58.152344 190.445312 C 58.152344 195.382812 62.15625 199.386719 67.097656 199.386719 C 72.039062 199.386719 76.042969 195.382812 76.042969 190.445312 C 76.042969 185.503906 72.039062 181.5 67.097656 181.5 Z M 67.097656 181.5 " clip-rule="nonzero"/></clipPath><clipPath id="f73797a112"><path d="M 0.152344 0.5 L 18.042969 0.5 L 18.042969 18.386719 L 0.152344 18.386719 Z M 0.152344 0.5 " clip-rule="nonzero"/></clipPath><clipPath id="d2c8f5c1e3"><path d="M 9.097656 0.5 C 4.15625 0.5 0.152344 4.503906 0.152344 9.445312 C 0.152344 14.382812 4.15625 18.386719 9.097656 18.386719 C 14.039062 18.386719 18.042969 14.382812 18.042969 9.445312 C 18.042969 4.503906 14.039062 0.5 9.097656 0.5 Z M 9.097656 0.5 " clip-rule="nonzero"/></clipPath><clipPath id="2530bd91e3"><rect x="0" width="19" y="0" height="19"/></clipPath><clipPath id="519b4e2093"><path d="M 297 162 L 316 162 L 316 181 L 297 181 Z M 297 162 " clip-rule="nonzero"/></clipPath><clipPath id="512c00c7c1"><path d="M 316.171875 179.734375 L 298.316406 180.804688 L 297.242188 162.949219 L 315.101562 161.875 Z M 316.171875 179.734375 " clip-rule="nonzero"/></clipPath><clipPath id="44ec031ba9"><path d="M 307.246094 180.269531 C 312.175781 179.972656 315.933594 175.734375 315.636719 170.804688 C 315.339844 165.871094 311.105469 162.113281 306.171875 162.410156 C 301.242188 162.707031 297.484375 166.945312 297.78125 171.875 C 298.074219 176.808594 302.3125 180.566406 307.246094 180.269531 Z M 307.246094 180.269531 " clip-rule="nonzero"/></clipPath><clipPath id="16a8c9e01d"><path d="M 0.359375 0 L 19 0 L 19 18.71875 L 0.359375 18.71875 Z M 0.359375 0 " clip-rule="nonzero"/></clipPath><clipPath id="967d04d985"><path d="M 19.171875 17.734375 L 1.316406 18.804688 L 0.242188 0.949219 L 18.101562 -0.125 Z M 19.171875 17.734375 " clip-rule="nonzero"/></clipPath><clipPath id="b0f74d3740"><path d="M 10.246094 18.269531 C 15.175781 17.972656 18.933594 13.734375 18.636719 8.804688 C 18.339844 3.871094 14.105469 0.113281 9.171875 0.410156 C 4.242188 0.707031 0.484375 4.945312 0.78125 9.875 C 1.074219 14.808594 5.3125 18.566406 10.246094 18.269531 Z M 10.246094 18.269531 " clip-rule="nonzero"/></clipPath><clipPath id="db0a4c5799"><rect x="0" width="19" y="0" height="19"/></clipPath><clipPath id="696920ec17"><path d="M 14 172 L 87.433594 172 L 87.433594 274 L 14 274 Z M 14 172 " clip-rule="nonzero"/></clipPath><clipPath id="6e535488ac"><path d="M 44.992188 236.230469 C 33.289062 226.972656 28.253906 222.976562 24.773438 217.789062 C 20.550781 211.71875 16.035156 201.128906 14.773438 195.203125 C 14.035156 191.648438 14.109375 189.128906 14.773438 186.316406 C 15.441406 183.5 17.367188 180.316406 18.847656 178.464844 C 19.886719 177.058594 20.699219 176.316406 22.179688 175.429688 C 24.253906 174.167969 27.585938 172.613281 30.476562 172.242188 C 33.289062 171.875 36.917969 172.539062 39.289062 173.28125 C 40.917969 173.796875 41.882812 174.242188 43.214844 175.355469 C 45.140625 176.835938 47.214844 179.058594 49.140625 181.945312 C 51.878906 186.09375 54.988281 192.683594 57.0625 198.386719 C 59.136719 204.238281 60.542969 210.53125 61.507812 216.53125 C 62.320312 222.382812 64.988281 229.789062 62.542969 234.085938 C 60.101562 238.378906 49.65625 243.859375 46.992188 242.230469 C 44.25 240.675781 44.695312 225.121094 46.546875 224.085938 C 47.730469 223.417969 52.101562 228.085938 52.25 227.863281 C 52.398438 227.640625 48.992188 224.902344 47.730469 223.125 C 46.546875 221.34375 45.585938 219.273438 44.992188 217.125 C 44.398438 215.050781 44.175781 212.828125 44.25 210.679688 C 44.398438 208.460938 44.84375 206.238281 45.65625 204.238281 C 46.472656 202.238281 47.65625 200.238281 49.066406 198.609375 C 50.398438 196.980469 52.175781 195.5 54.027344 194.386719 C 55.878906 193.277344 58.027344 192.386719 60.101562 191.945312 C 62.171875 191.425781 64.46875 191.351562 66.617188 191.574219 C 68.765625 191.796875 70.988281 192.386719 72.988281 193.277344 C 74.910156 194.238281 76.835938 195.5 78.394531 196.980469 C 79.949219 198.460938 81.355469 200.3125 82.390625 202.164062 C 83.355469 204.089844 84.09375 206.238281 84.464844 208.386719 C 84.835938 210.53125 84.835938 212.828125 84.464844 214.976562 C 84.167969 217.050781 83.429688 219.273438 82.390625 221.199219 C 81.429688 223.050781 80.023438 224.902344 78.46875 226.382812 C 76.910156 227.863281 74.984375 229.195312 73.058594 230.085938 C 71.0625 230.972656 68.839844 231.640625 66.691406 231.863281 C 64.542969 232.085938 62.246094 231.9375 60.175781 231.492188 C 58.101562 231.046875 55.953125 230.160156 54.101562 229.046875 C 52.25 227.9375 50.472656 226.457031 49.066406 224.828125 C 47.65625 223.195312 46.472656 221.273438 45.65625 219.199219 C 44.917969 217.199219 44.398438 214.976562 44.25 212.828125 C 44.175781 210.679688 44.398438 208.386719 44.992188 206.3125 C 45.511719 204.238281 46.472656 202.164062 47.730469 200.386719 C 48.917969 198.609375 50.472656 196.90625 52.175781 195.574219 C 53.953125 194.3125 55.953125 193.203125 58.027344 192.535156 C 60.027344 191.796875 62.320312 191.425781 64.46875 191.425781 C 66.617188 191.425781 68.914062 191.796875 70.914062 192.460938 C 72.988281 193.203125 74.910156 193.648438 76.761719 195.574219 C 80.097656 199.054688 84.316406 208.3125 86.019531 215.050781 C 87.652344 221.566406 87.058594 228.75 86.910156 235.195312 C 86.761719 241.269531 87.503906 247.488281 85.207031 252.746094 C 82.835938 258.226562 77.503906 263.632812 72.394531 267.1875 C 67.359375 270.667969 60.765625 273.558594 54.769531 273.929688 C 48.917969 274.300781 41.511719 272.890625 36.84375 269.632812 C 32.179688 266.300781 29.070312 259.855469 26.847656 254.15625 C 24.625 248.304688 24.476562 241.269531 23.808594 234.972656 C 23.144531 228.972656 24.105469 223.417969 22.847656 217.273438 C 21.367188 210.238281 15.8125 200.980469 14.773438 195.203125 C 14.183594 191.648438 14.109375 189.128906 14.773438 186.316406 C 15.441406 183.5 17.367188 180.316406 18.847656 178.464844 C 19.886719 177.058594 20.699219 176.316406 22.179688 175.429688 C 24.253906 174.167969 28.105469 172.6875 30.476562 172.242188 C 32.105469 171.949219 33.214844 171.949219 34.917969 172.242188 C 37.289062 172.6875 40.84375 173.726562 43.214844 175.355469 C 45.585938 176.984375 47.140625 178.984375 49.140625 181.945312 C 52.324219 186.683594 55.210938 197.570312 58.839844 202.089844 C 61.285156 205.125 64.394531 206.089844 66.691406 208.3125 C 68.691406 210.382812 70.765625 212.457031 71.949219 214.976562 C 73.058594 217.496094 73.429688 220.976562 73.503906 223.269531 C 73.503906 224.902344 73.132812 226.160156 72.691406 227.492188 C 72.320312 228.824219 71.949219 230.011719 70.988281 231.417969 C 69.652344 233.269531 67.359375 235.933594 65.0625 237.417969 C 62.691406 238.824219 59.730469 239.785156 56.988281 239.933594 C 54.25 240.15625 50.769531 239.269531 48.621094 238.453125 C 47.066406 237.859375 44.992188 236.230469 44.992188 236.230469 " clip-rule="nonzero"/></clipPath><clipPath id="8564f78aa3"><path d="M 0 0 L 73.433594 0 L 73.433594 102 L 0 102 Z M 0 0 " clip-rule="nonzero"/></clipPath><clipPath id="9a7e2263e8"><path d="M 30.992188 64.230469 C 19.289062 54.972656 14.253906 50.976562 10.773438 45.789062 C 6.550781 39.71875 2.035156 29.128906 0.773438 23.203125 C 0.0351562 19.648438 0.109375 17.128906 0.773438 14.316406 C 1.441406 11.5 3.367188 8.316406 4.847656 6.464844 C 5.886719 5.058594 6.699219 4.316406 8.179688 3.429688 C 10.253906 2.167969 13.585938 0.613281 16.476562 0.242188 C 19.289062 -0.125 22.917969 0.539062 25.289062 1.28125 C 26.917969 1.796875 27.882812 2.242188 29.214844 3.355469 C 31.140625 4.835938 33.214844 7.058594 35.140625 9.945312 C 37.878906 14.09375 40.988281 20.683594 43.0625 26.386719 C 45.136719 32.238281 46.542969 38.53125 47.507812 44.53125 C 48.320312 50.382812 50.988281 57.789062 48.542969 62.085938 C 46.101562 66.378906 35.65625 71.859375 32.992188 70.230469 C 30.25 68.675781 30.695312 53.121094 32.546875 52.085938 C 33.730469 51.417969 38.101562 56.085938 38.25 55.863281 C 38.398438 55.640625 34.992188 52.902344 33.730469 51.125 C 32.546875 49.34375 31.585938 47.273438 30.992188 45.125 C 30.398438 43.050781 30.175781 40.828125 30.25 38.679688 C 30.398438 36.460938 30.84375 34.238281 31.65625 32.238281 C 32.472656 30.238281 33.65625 28.238281 35.066406 26.609375 C 36.398438 24.980469 38.175781 23.5 40.027344 22.386719 C 41.878906 21.277344 44.027344 20.386719 46.101562 19.945312 C 48.171875 19.425781 50.46875 19.351562 52.617188 19.574219 C 54.765625 19.796875 56.988281 20.386719 58.988281 21.277344 C 60.910156 22.238281 62.835938 23.5 64.394531 24.980469 C 65.949219 26.460938 67.355469 28.3125 68.390625 30.164062 C 69.355469 32.089844 70.09375 34.238281 70.464844 36.386719 C 70.835938 38.53125 70.835938 40.828125 70.464844 42.976562 C 70.167969 45.050781 69.429688 47.273438 68.390625 49.199219 C 67.429688 51.050781 66.023438 52.902344 64.46875 54.382812 C 62.910156 55.863281 60.984375 57.195312 59.058594 58.085938 C 57.0625 58.972656 54.839844 59.640625 52.691406 59.863281 C 50.542969 60.085938 48.246094 59.9375 46.175781 59.492188 C 44.101562 59.046875 41.953125 58.160156 40.101562 57.046875 C 38.25 55.9375 36.472656 54.457031 35.066406 52.828125 C 33.65625 51.195312 32.472656 49.273438 31.65625 47.199219 C 30.917969 45.199219 30.398438 42.976562 30.25 40.828125 C 30.175781 38.679688 30.398438 36.386719 30.992188 34.3125 C 31.511719 32.238281 32.472656 30.164062 33.730469 28.386719 C 34.917969 26.609375 36.472656 24.90625 38.175781 23.574219 C 39.953125 22.3125 41.953125 21.203125 44.027344 20.535156 C 46.027344 19.796875 48.320312 19.425781 50.46875 19.425781 C 52.617188 19.425781 54.914062 19.796875 56.914062 20.460938 C 58.988281 21.203125 60.910156 21.648438 62.761719 23.574219 C 66.097656 27.054688 70.316406 36.3125 72.019531 43.050781 C 73.652344 49.566406 73.058594 56.75 72.910156 63.195312 C 72.761719 69.269531 73.503906 75.488281 71.207031 80.746094 C 68.835938 86.226562 63.503906 91.632812 58.394531 95.1875 C 53.359375 98.667969 46.765625 101.558594 40.769531 101.929688 C 34.917969 102.300781 27.511719 100.890625 22.84375 97.632812 C 18.179688 94.300781 15.070312 87.855469 12.847656 82.15625 C 10.625 76.304688 10.476562 69.269531 9.808594 62.972656 C 9.144531 56.972656 10.105469 51.417969 8.847656 45.273438 C 7.367188 38.238281 1.8125 28.980469 0.773438 23.203125 C 0.183594 19.648438 0.109375 17.128906 0.773438 14.316406 C 1.441406 11.5 3.367188 8.316406 4.847656 6.464844 C 5.886719 5.058594 6.699219 4.316406 8.179688 3.429688 C 10.253906 2.167969 14.105469 0.6875 16.476562 0.242188 C 18.105469 -0.0507812 19.214844 -0.0507812 20.917969 0.242188 C 23.289062 0.6875 26.84375 1.726562 29.214844 3.355469 C 31.585938 4.984375 33.140625 6.984375 35.140625 9.945312 C 38.324219 14.683594 41.210938 25.570312 44.839844 30.089844 C 47.285156 33.125 50.394531 34.089844 52.691406 36.3125 C 54.691406 38.382812 56.765625 40.457031 57.949219 42.976562 C 59.058594 45.496094 59.429688 48.976562 59.503906 51.269531 C 59.503906 52.902344 59.132812 54.160156 58.691406 55.492188 C 58.320312 56.824219 57.949219 58.011719 56.988281 59.417969 C 55.652344 61.269531 53.359375 63.933594 51.0625 65.417969 C 48.691406 66.824219 45.730469 67.785156 42.988281 67.933594 C 40.25 68.15625 36.769531 67.269531 34.621094 66.453125 C 33.066406 65.859375 30.992188 64.230469 30.992188 64.230469 " clip-rule="nonzero"/></clipPath><clipPath id="533dcc55bb"><rect x="0" width="74" y="0" height="102"/></clipPath><clipPath id="cfa05edd63"><path d="M 283.210938 102.742188 L 364.457031 102.742188 L 364.457031 179.542969 L 283.210938 179.542969 Z M 283.210938 102.742188 " clip-rule="nonzero"/></clipPath><clipPath id="f237f70e84"><path d="M 283.316406 154.691406 C 283.539062 151.804688 283.539062 151.433594 283.613281 150.394531 C 283.910156 147.433594 284.726562 137.582031 285.6875 133.804688 C 286.28125 131.734375 286.945312 130.546875 287.613281 129.066406 C 288.207031 127.734375 288.722656 126.472656 289.539062 125.289062 C 290.28125 124.105469 291.242188 123.066406 292.355469 122.105469 C 293.390625 121.140625 294.574219 120.328125 295.761719 119.660156 C 297.019531 118.992188 298.945312 118.328125 299.757812 118.105469 C 300.128906 118.03125 300.351562 118.253906 300.574219 118.03125 C 301.019531 117.511719 299.980469 115.144531 301.019531 113.734375 C 303.609375 110.105469 319.386719 102.773438 325.164062 102.847656 C 328.496094 102.921875 332.496094 106.625 332.863281 106.699219 C 332.9375 106.699219 332.9375 106.699219 332.9375 106.699219 C 332.9375 106.699219 334.417969 107.070312 335.160156 107.292969 C 335.902344 107.441406 337.308594 107.8125 337.382812 107.8125 C 337.382812 107.886719 338.714844 108.550781 339.382812 108.921875 C 340.046875 109.292969 341.382812 110.03125 341.382812 110.03125 C 341.382812 110.03125 342.492188 111.070312 343.085938 111.589844 C 343.675781 112.105469 344.789062 113.070312 344.789062 113.144531 C 344.789062 113.144531 345.601562 114.402344 346.046875 114.996094 C 346.492188 115.660156 347.304688 116.847656 347.304688 116.921875 C 347.304688 116.921875 347.824219 118.328125 348.121094 119.066406 C 348.34375 119.808594 348.863281 121.214844 348.863281 121.214844 C 348.863281 121.214844 349.082031 122.84375 349.15625 123.511719 C 349.15625 123.957031 349.082031 124.253906 349.230469 124.695312 C 349.601562 125.511719 351.007812 126.179688 351.824219 127.214844 C 352.933594 128.695312 354.34375 131.734375 354.785156 133.140625 C 355.007812 133.804688 354.710938 134.25 355.007812 134.695312 C 355.304688 135.214844 356.121094 135.066406 356.710938 135.878906 C 358.414062 138.25 361.082031 147.730469 362.117188 153.949219 C 363.15625 160.394531 366.414062 169.578125 362.710938 173.871094 C 357.527344 179.871094 333.828125 180.242188 324.421875 178.167969 C 318.273438 176.761719 312.496094 169.429688 310.203125 169.429688 C 309.460938 169.429688 308.796875 170.316406 308.796875 170.316406 C 308.722656 170.316406 307.386719 170.6875 306.648438 170.910156 C 305.980469 171.132812 304.648438 171.578125 304.574219 171.578125 C 304.574219 171.578125 303.167969 171.652344 302.425781 171.726562 C 301.683594 171.726562 300.277344 171.800781 300.203125 171.800781 C 300.203125 171.800781 298.796875 171.578125 298.054688 171.429688 C 297.390625 171.28125 295.984375 170.984375 295.910156 170.984375 C 295.910156 170.984375 294.648438 170.390625 293.984375 170.097656 C 293.316406 169.800781 291.984375 169.207031 291.984375 169.207031 C 291.910156 169.132812 290.796875 168.246094 290.28125 167.800781 C 289.6875 167.355469 288.578125 166.46875 288.578125 166.46875 C 288.503906 166.46875 287.6875 165.28125 287.242188 164.761719 C 286.800781 164.171875 285.910156 163.058594 285.910156 162.984375 C 285.835938 162.984375 285.316406 161.652344 285.023438 160.988281 C 284.726562 160.320312 284.132812 159.0625 284.132812 159.0625 C 284.132812 158.988281 284.132812 158.988281 284.132812 158.988281 C 284.132812 158.988281 283.835938 157.578125 283.761719 156.839844 C 283.613281 156.171875 283.316406 154.765625 283.316406 154.691406 M 326.347656 162.320312 C 338.269531 159.0625 336.789062 159.136719 336.125 159.207031 C 335.382812 159.207031 334.492188 159.429688 333.902344 159.355469 C 333.457031 159.355469 333.160156 159.136719 332.863281 159.136719 C 332.496094 159.0625 332.125 159.136719 331.753906 159.0625 C 331.160156 158.988281 330.421875 158.171875 329.753906 158.394531 C 328.644531 158.617188 326.347656 162.320312 326.347656 162.320312 " clip-rule="nonzero"/></clipPath><clipPath id="c8c99e2cce"><path d="M 0.210938 0.742188 L 81.457031 0.742188 L 81.457031 77.542969 L 0.210938 77.542969 Z M 0.210938 0.742188 " clip-rule="nonzero"/></clipPath><clipPath id="f54aa279d9"><path d="M 0.316406 52.691406 C 0.539062 49.804688 0.539062 49.433594 0.613281 48.394531 C 0.910156 45.433594 1.726562 35.582031 2.6875 31.804688 C 3.28125 29.734375 3.945312 28.546875 4.613281 27.066406 C 5.207031 25.734375 5.722656 24.472656 6.539062 23.289062 C 7.28125 22.105469 8.242188 21.066406 9.355469 20.105469 C 10.390625 19.140625 11.574219 18.328125 12.761719 17.660156 C 14.019531 16.992188 15.945312 16.328125 16.757812 16.105469 C 17.128906 16.03125 17.351562 16.253906 17.574219 16.03125 C 18.019531 15.511719 16.980469 13.144531 18.019531 11.734375 C 20.609375 8.105469 36.386719 0.773438 42.164062 0.847656 C 45.496094 0.921875 49.496094 4.625 49.863281 4.699219 C 49.9375 4.699219 49.9375 4.699219 49.9375 4.699219 C 49.9375 4.699219 51.417969 5.070312 52.160156 5.292969 C 52.902344 5.441406 54.308594 5.8125 54.382812 5.8125 C 54.382812 5.886719 55.714844 6.550781 56.382812 6.921875 C 57.046875 7.292969 58.382812 8.03125 58.382812 8.03125 C 58.382812 8.03125 59.492188 9.070312 60.085938 9.589844 C 60.675781 10.105469 61.789062 11.070312 61.789062 11.144531 C 61.789062 11.144531 62.601562 12.402344 63.046875 12.996094 C 63.492188 13.660156 64.304688 14.847656 64.304688 14.921875 C 64.304688 14.921875 64.824219 16.328125 65.121094 17.066406 C 65.34375 17.808594 65.863281 19.214844 65.863281 19.214844 C 65.863281 19.214844 66.082031 20.84375 66.15625 21.511719 C 66.15625 21.957031 66.082031 22.253906 66.230469 22.695312 C 66.601562 23.511719 68.007812 24.179688 68.824219 25.214844 C 69.933594 26.695312 71.34375 29.734375 71.785156 31.140625 C 72.007812 31.804688 71.710938 32.25 72.007812 32.695312 C 72.304688 33.214844 73.121094 33.066406 73.710938 33.878906 C 75.414062 36.25 78.082031 45.730469 79.117188 51.949219 C 80.15625 58.394531 83.414062 67.578125 79.710938 71.871094 C 74.527344 77.871094 50.828125 78.242188 41.421875 76.167969 C 35.273438 74.761719 29.496094 67.429688 27.203125 67.429688 C 26.460938 67.429688 25.796875 68.316406 25.796875 68.316406 C 25.722656 68.316406 24.386719 68.6875 23.648438 68.910156 C 22.980469 69.132812 21.648438 69.578125 21.574219 69.578125 C 21.574219 69.578125 20.167969 69.652344 19.425781 69.726562 C 18.683594 69.726562 17.277344 69.800781 17.203125 69.800781 C 17.203125 69.800781 15.796875 69.578125 15.054688 69.429688 C 14.390625 69.28125 12.984375 68.984375 12.910156 68.984375 C 12.910156 68.984375 11.648438 68.390625 10.984375 68.097656 C 10.316406 67.800781 8.984375 67.207031 8.984375 67.207031 C 8.910156 67.132812 7.796875 66.246094 7.28125 65.800781 C 6.6875 65.355469 5.578125 64.46875 5.578125 64.46875 C 5.503906 64.46875 4.6875 63.28125 4.242188 62.761719 C 3.800781 62.171875 2.910156 61.058594 2.910156 60.984375 C 2.835938 60.984375 2.316406 59.652344 2.023438 58.988281 C 1.726562 58.320312 1.132812 57.0625 1.132812 57.0625 C 1.132812 56.988281 1.132812 56.988281 1.132812 56.988281 C 1.132812 56.988281 0.835938 55.578125 0.761719 54.839844 C 0.613281 54.171875 0.316406 52.765625 0.316406 52.691406 M 43.347656 60.320312 C 55.269531 57.0625 53.789062 57.136719 53.125 57.207031 C 52.382812 57.207031 51.492188 57.429688 50.902344 57.355469 C 50.457031 57.355469 50.160156 57.136719 49.863281 57.136719 C 49.496094 57.0625 49.125 57.136719 48.753906 57.0625 C 48.160156 56.988281 47.421875 56.171875 46.753906 56.394531 C 45.644531 56.617188 43.347656 60.320312 43.347656 60.320312 " clip-rule="nonzero"/></clipPath><clipPath id="0bcc012c68"><rect x="0" width="82" y="0" height="78"/></clipPath><clipPath id="01708578c5"><path d="M 300.117188 138.609375 L 359.386719 138.609375 L 359.386719 187.964844 L 300.117188 187.964844 Z M 300.117188 138.609375 " clip-rule="nonzero"/></clipPath><clipPath id="67811e3eab"><path d="M 321.015625 138.992188 C 330.050781 141.0625 337.457031 144.175781 342.640625 147.804688 C 348.195312 151.875 355.898438 159.136719 358.121094 163.355469 C 359.304688 165.578125 359.15625 167.207031 359.230469 169.207031 C 359.304688 171.132812 359.007812 173.207031 358.488281 175.058594 C 357.898438 176.910156 357.007812 178.761719 355.824219 180.316406 C 354.710938 181.871094 353.230469 183.351562 351.675781 184.539062 C 350.121094 185.648438 348.269531 186.539062 346.417969 187.128906 C 344.566406 187.722656 342.492188 188.019531 340.566406 187.945312 C 338.566406 187.871094 336.566406 187.5 334.714844 186.832031 C 332.9375 186.167969 331.085938 185.128906 329.605469 183.945312 C 328.050781 182.761719 326.71875 181.203125 325.679688 179.574219 C 324.570312 177.945312 323.753906 176.019531 323.3125 174.167969 C 322.867188 172.242188 322.644531 170.167969 322.792969 168.246094 C 322.941406 166.320312 323.457031 164.320312 324.199219 162.542969 C 325.015625 160.765625 326.125 158.988281 327.382812 157.578125 C 328.71875 156.097656 330.273438 154.765625 331.976562 153.875 C 333.679688 152.914062 335.605469 152.171875 337.53125 151.804688 C 339.457031 151.433594 341.53125 151.359375 343.457031 151.65625 C 345.378906 151.875 347.304688 152.46875 349.082031 153.359375 C 350.789062 154.171875 352.492188 155.433594 353.898438 156.765625 C 355.230469 158.171875 356.488281 159.800781 357.304688 161.578125 C 358.191406 163.28125 358.785156 165.28125 359.082031 167.207031 C 359.378906 169.132812 359.304688 171.207031 358.933594 173.132812 C 358.5625 175.058594 357.824219 176.984375 356.933594 178.6875 C 355.972656 180.390625 354.636719 181.945312 353.230469 183.277344 C 351.75 184.539062 350.046875 185.722656 348.269531 186.464844 C 346.492188 187.203125 344.417969 187.722656 342.492188 187.871094 C 340.566406 188.019531 338.492188 187.871094 336.640625 187.425781 C 334.714844 186.980469 332.863281 186.167969 331.234375 185.128906 C 329.53125 184.019531 328.050781 182.6875 326.792969 181.128906 C 325.605469 179.648438 325.605469 177.355469 323.902344 176.019531 C 321.238281 173.945312 313.609375 173.578125 310.644531 172.316406 C 309.015625 171.578125 308.203125 171.207031 307.015625 170.097656 C 305.3125 168.613281 302.945312 165.949219 301.832031 163.503906 C 300.722656 160.988281 300.128906 157.949219 300.277344 155.210938 C 300.5 152.46875 301.390625 149.507812 302.796875 147.210938 C 304.203125 144.839844 306.425781 142.621094 308.796875 141.210938 C 311.089844 139.804688 314.570312 138.992188 316.792969 138.769531 C 318.421875 138.546875 321.015625 138.992188 321.015625 138.992188 " clip-rule="nonzero"/></clipPath><clipPath id="ba39e72ad7"><path d="M 0.117188 0.609375 L 59.386719 0.609375 L 59.386719 49.964844 L 0.117188 49.964844 Z M 0.117188 0.609375 " clip-rule="nonzero"/></clipPath><clipPath id="eb0280b179"><path d="M 21.015625 0.992188 C 30.050781 3.0625 37.457031 6.175781 42.640625 9.804688 C 48.195312 13.875 55.898438 21.136719 58.121094 25.355469 C 59.304688 27.578125 59.15625 29.207031 59.230469 31.207031 C 59.304688 33.132812 59.007812 35.207031 58.488281 37.058594 C 57.898438 38.910156 57.007812 40.761719 55.824219 42.316406 C 54.710938 43.871094 53.230469 45.351562 51.675781 46.539062 C 50.121094 47.648438 48.269531 48.539062 46.417969 49.128906 C 44.566406 49.722656 42.492188 50.019531 40.566406 49.945312 C 38.566406 49.871094 36.566406 49.5 34.714844 48.832031 C 32.9375 48.167969 31.085938 47.128906 29.605469 45.945312 C 28.050781 44.761719 26.71875 43.203125 25.679688 41.574219 C 24.570312 39.945312 23.753906 38.019531 23.3125 36.167969 C 22.867188 34.242188 22.644531 32.167969 22.792969 30.246094 C 22.941406 28.320312 23.457031 26.320312 24.199219 24.542969 C 25.015625 22.765625 26.125 20.988281 27.382812 19.578125 C 28.71875 18.097656 30.273438 16.765625 31.976562 15.875 C 33.679688 14.914062 35.605469 14.171875 37.53125 13.804688 C 39.457031 13.433594 41.53125 13.359375 43.457031 13.65625 C 45.378906 13.875 47.304688 14.46875 49.082031 15.359375 C 50.789062 16.171875 52.492188 17.433594 53.898438 18.765625 C 55.230469 20.171875 56.488281 21.800781 57.304688 23.578125 C 58.191406 25.28125 58.785156 27.28125 59.082031 29.207031 C 59.378906 31.132812 59.304688 33.207031 58.933594 35.132812 C 58.5625 37.058594 57.824219 38.984375 56.933594 40.6875 C 55.972656 42.390625 54.636719 43.945312 53.230469 45.277344 C 51.75 46.539062 50.046875 47.722656 48.269531 48.464844 C 46.492188 49.203125 44.417969 49.722656 42.492188 49.871094 C 40.566406 50.019531 38.492188 49.871094 36.640625 49.425781 C 34.714844 48.980469 32.863281 48.167969 31.234375 47.128906 C 29.53125 46.019531 28.050781 44.6875 26.792969 43.128906 C 25.605469 41.648438 25.605469 39.355469 23.902344 38.019531 C 21.238281 35.945312 13.609375 35.578125 10.644531 34.316406 C 9.015625 33.578125 8.203125 33.207031 7.015625 32.097656 C 5.3125 30.613281 2.945312 27.949219 1.832031 25.503906 C 0.722656 22.988281 0.128906 19.949219 0.277344 17.210938 C 0.5 14.46875 1.390625 11.507812 2.796875 9.210938 C 4.203125 6.839844 6.425781 4.621094 8.796875 3.210938 C 11.089844 1.804688 14.570312 0.992188 16.792969 0.769531 C 18.421875 0.546875 21.015625 0.992188 21.015625 0.992188 " clip-rule="nonzero"/></clipPath><clipPath id="dd7ff4937e"><rect x="0" width="60" y="0" height="50"/></clipPath><clipPath id="90c28cd1f8"><path d="M 11.566406 182.746094 L 65.964844 182.746094 L 65.964844 255.121094 L 11.566406 255.121094 Z M 11.566406 182.746094 " clip-rule="nonzero"/></clipPath><clipPath id="cd2a0d52e6"><path d="M 42.546875 254.449219 C 28.847656 249.265625 21.441406 244.972656 17.886719 239.710938 C 14.257812 234.230469 13.367188 225.863281 12.40625 219.273438 C 11.515625 213.199219 11.664062 205.867188 11.960938 201.570312 C 12.109375 199.054688 12.257812 197.5 12.921875 195.648438 C 13.515625 193.722656 14.480469 191.871094 15.738281 190.238281 C 16.921875 188.683594 18.476562 187.203125 20.105469 186.09375 C 21.738281 184.980469 23.664062 184.09375 25.585938 183.574219 C 27.511719 183.054688 29.585938 182.761719 31.585938 182.910156 C 33.585938 182.980469 35.660156 183.425781 37.511719 184.167969 C 39.289062 184.90625 41.140625 186.019531 42.695312 187.277344 C 44.175781 188.535156 45.585938 190.167969 46.546875 191.871094 C 47.582031 193.574219 48.398438 195.574219 48.84375 197.5 C 49.289062 199.421875 49.359375 201.570312 49.140625 203.496094 C 48.992188 205.496094 48.398438 207.570312 47.582031 209.347656 C 46.695312 211.125 45.511719 212.902344 44.175781 214.382812 C 42.84375 215.792969 41.140625 217.125 39.363281 218.011719 C 37.660156 218.976562 35.585938 219.640625 33.660156 219.9375 C 31.660156 220.308594 29.585938 220.308594 27.585938 219.9375 C 25.660156 219.640625 23.664062 218.976562 21.886719 218.085938 C 20.105469 217.125 18.402344 215.863281 17.070312 214.382812 C 15.664062 212.976562 14.480469 211.199219 13.664062 209.421875 C 12.847656 207.644531 12.257812 205.570312 12.035156 203.570312 C 11.8125 201.644531 11.960938 199.496094 12.332031 197.570312 C 12.773438 195.648438 13.589844 193.648438 14.554688 191.945312 C 15.589844 190.238281 16.996094 188.609375 18.476562 187.351562 C 20.035156 186.019531 21.8125 184.980469 23.664062 184.242188 C 25.515625 183.5 27.585938 182.980469 29.585938 182.910156 C 31.511719 182.761719 33.660156 182.980469 35.585938 183.574219 C 37.511719 184.09375 39.4375 184.980469 41.066406 186.09375 C 42.695312 187.203125 44.25 188.609375 45.4375 190.238281 C 46.621094 191.796875 47.65625 193.648438 48.25 195.574219 C 48.917969 197.425781 49.433594 199.054688 49.289062 201.496094 C 48.992188 205.570312 42.84375 214.085938 44.546875 217.496094 C 46.101562 220.605469 54.398438 220.53125 57.210938 222.085938 C 58.765625 222.976562 59.582031 223.789062 60.542969 224.753906 C 61.582031 225.789062 62.46875 226.679688 63.210938 228.160156 C 64.320312 230.234375 65.582031 233.566406 65.730469 236.378906 C 65.875 239.121094 65.359375 242.230469 64.171875 244.75 C 63.0625 247.265625 61.0625 249.785156 58.914062 251.488281 C 56.691406 253.191406 53.804688 254.449219 51.066406 254.96875 C 48.398438 255.488281 42.546875 254.449219 42.546875 254.449219 " clip-rule="nonzero"/></clipPath><clipPath id="24162d5067"><path d="M 0.566406 0.746094 L 54.964844 0.746094 L 54.964844 73.121094 L 0.566406 73.121094 Z M 0.566406 0.746094 " clip-rule="nonzero"/></clipPath><clipPath id="96f16a63c8"><path d="M 31.546875 72.449219 C 17.847656 67.265625 10.441406 62.972656 6.886719 57.710938 C 3.257812 52.230469 2.367188 43.863281 1.40625 37.273438 C 0.515625 31.199219 0.664062 23.867188 0.960938 19.570312 C 1.109375 17.054688 1.257812 15.5 1.921875 13.648438 C 2.515625 11.722656 3.480469 9.871094 4.738281 8.238281 C 5.921875 6.683594 7.476562 5.203125 9.105469 4.09375 C 10.738281 2.980469 12.664062 2.09375 14.585938 1.574219 C 16.511719 1.054688 18.585938 0.761719 20.585938 0.910156 C 22.585938 0.980469 24.660156 1.425781 26.511719 2.167969 C 28.289062 2.90625 30.140625 4.019531 31.695312 5.277344 C 33.175781 6.535156 34.585938 8.167969 35.546875 9.871094 C 36.582031 11.574219 37.398438 13.574219 37.84375 15.5 C 38.289062 17.421875 38.359375 19.570312 38.140625 21.496094 C 37.992188 23.496094 37.398438 25.570312 36.582031 27.347656 C 35.695312 29.125 34.511719 30.902344 33.175781 32.382812 C 31.84375 33.792969 30.140625 35.125 28.363281 36.011719 C 26.660156 36.976562 24.585938 37.640625 22.660156 37.9375 C 20.660156 38.308594 18.585938 38.308594 16.585938 37.9375 C 14.660156 37.640625 12.664062 36.976562 10.886719 36.085938 C 9.105469 35.125 7.402344 33.863281 6.070312 32.382812 C 4.664062 30.976562 3.480469 29.199219 2.664062 27.421875 C 1.847656 25.644531 1.257812 23.570312 1.035156 21.570312 C 0.8125 19.644531 0.960938 17.496094 1.332031 15.570312 C 1.773438 13.648438 2.589844 11.648438 3.554688 9.945312 C 4.589844 8.238281 5.996094 6.609375 7.476562 5.351562 C 9.035156 4.019531 10.8125 2.980469 12.664062 2.242188 C 14.515625 1.5 16.585938 0.980469 18.585938 0.910156 C 20.511719 0.761719 22.660156 0.980469 24.585938 1.574219 C 26.511719 2.09375 28.4375 2.980469 30.066406 4.09375 C 31.695312 5.203125 33.25 6.609375 34.4375 8.238281 C 35.621094 9.796875 36.65625 11.648438 37.25 13.574219 C 37.917969 15.425781 38.433594 17.054688 38.289062 19.496094 C 37.992188 23.570312 31.84375 32.085938 33.546875 35.496094 C 35.101562 38.605469 43.398438 38.53125 46.210938 40.085938 C 47.765625 40.976562 48.582031 41.789062 49.542969 42.753906 C 50.582031 43.789062 51.46875 44.679688 52.210938 46.160156 C 53.320312 48.234375 54.582031 51.566406 54.730469 54.378906 C 54.875 57.121094 54.359375 60.230469 53.171875 62.75 C 52.0625 65.265625 50.0625 67.785156 47.914062 69.488281 C 45.691406 71.191406 42.804688 72.449219 40.066406 72.96875 C 37.398438 73.488281 31.546875 72.449219 31.546875 72.449219 " clip-rule="nonzero"/></clipPath><clipPath id="63c81b4c24"><rect x="0" width="55" y="0" height="74"/></clipPath></defs><g clip-path="url(#885da64bcc)"><g clip-path="url(#e61ce9c81f)"><g transform="matrix(1, 0, 0, 1, 1, 2)"><g clip-path="url(#3ef28d91b7)"><g clip-path="url(#8fffbed3b4)"><g clip-path="url(#c4c8e7e013)"><path fill="#000000" d="M 0.519531 0.347656 L 370.820312 0.347656 L 370.820312 370.652344 L 0.519531 370.652344 Z M 0.519531 0.347656 " fill-opacity="1" fill-rule="nonzero"/></g></g></g></g></g></g><g clip-path="url(#34dd6e5007)"><g clip-path="url(#29c02395ba)"><g transform="matrix(1, 0, 0, 1, 23, 24)"><g clip-path="url(#e2c238eeae)"><g clip-path="url(#7f2c4156f9)"><g clip-path="url(#f2f60e8827)"><path fill="#ffffff" d="M 0.734375 0.566406 L 326.601562 0.566406 L 326.601562 326.433594 L 0.734375 326.433594 Z M 0.734375 0.566406 " fill-opacity="1" fill-rule="nonzero"/></g></g></g></g></g></g><g clip-path="url(#a2437f045c)"><g clip-path="url(#36f6b3a477)"><g transform="matrix(1, 0, 0, 1, 79, 2)"><g clip-path="url(#e6b2395cc1)"><g clip-path="url(#160cb9eb07)"><g clip-path="url(#10e118be6a)"><path fill="#000000" d="M 0.140625 0.347656 L 215.199219 0.347656 L 215.199219 370.816406 L 0.140625 370.816406 Z M 0.140625 0.347656 " fill-opacity="1" fill-rule="nonzero"/></g></g></g></g></g></g><g clip-path="url(#75b1fa2ce1)"><g clip-path="url(#053dc8a2ed)"><g transform="matrix(1, 0, 0, 1, 32, 141)"><g clip-path="url(#ffc03c737b)"><g clip-path="url(#e967cc895d)"><g clip-path="url(#8d3388ee25)"><path fill="#000000" d="M 0.0390625 133.824219 L 240.664062 0.078125 L 262.253906 38.917969 L 21.628906 172.664062 Z M 0.0390625 133.824219 " fill-opacity="1" fill-rule="nonzero"/></g></g></g></g></g></g><g clip-path="url(#235a93ae03)"><g clip-path="url(#afcc90f6c1)"><g transform="matrix(1, 0, 0, 1, 79, 60)"><g clip-path="url(#b656afbf6f)"><g clip-path="url(#4cf2adbbd6)"><g clip-path="url(#ce4e9fda7a)"><path fill="#000000" d="M 0.144531 134.050781 L 239.859375 0.8125 L 261.445312 39.652344 L 21.730469 172.890625 Z M 0.144531 134.050781 " fill-opacity="1" fill-rule="nonzero"/></g></g></g></g></g></g><g clip-path="url(#064bfebb68)"><g clip-path="url(#db9f46231d)"><g transform="matrix(1, 0, 0, 1, 90, 120)"><g clip-path="url(#16a21170a9)"><g clip-path="url(#3911b4563e)"><g clip-path="url(#a13b2945d5)"><path fill="#000000" d="M 0.101562 95.464844 L 170.632812 0.679688 L 192.222656 39.519531 L 21.691406 134.304688 Z M 0.101562 95.464844 " fill-opacity="1" fill-rule="nonzero"/></g></g></g></g></g></g><g clip-path="url(#d440de1161)"><g clip-path="url(#dea405d035)"><g transform="matrix(1, 0, 0, 1, 100, 25)"><g clip-path="url(#52cf23b774)"><g clip-path="url(#b213c3a402)"><g clip-path="url(#33a0b58b47)"><path fill="#ffffff" d="M 0.832031 0.6875 L 171.46875 0.6875 L 171.46875 324.628906 L 0.832031 324.628906 Z M 0.832031 0.6875 " fill-opacity="1" fill-rule="nonzero"/></g></g></g></g></g></g><path stroke-linecap="butt" transform="matrix(0.700765, 0.267261, -0.267261, 0.700765, 51.173401, 53.441284)" fill="none" stroke-linejoin="miter" d="M 8.690527 17.589239 C 81.486495 53.840846 155.763683 53.841086 231.526957 17.588104 " stroke="#000000" stroke-width="39" stroke-opacity="1" stroke-miterlimit="4"/><g clip-path="url(#edc39808e6)"><g clip-path="url(#0465d57fd0)"><g transform="matrix(1, 0, 0, 1, 193, 112)"><g clip-path="url(#dfb4d12a0d)"><g clip-path="url(#555a1aed4b)"><g clip-path="url(#d41f73b7f1)"><path fill="#000000" d="M 0.0078125 0.832031 L 31.484375 0.832031 L 31.484375 30.457031 L 0.0078125 30.457031 Z M 0.0078125 0.832031 " fill-opacity="1" fill-rule="nonzero"/></g></g></g></g></g></g><path stroke-linecap="butt" transform="matrix(0.706005, 0.253096, -0.253096, 0.706005, 179.481833, 207.01418)" fill="none" stroke-linejoin="miter" d="M 9.265419 49.325992 C 82.926448 9.557288 156.591535 9.557587 230.255778 49.328647 " stroke="#000000" stroke-width="39" stroke-opacity="1" stroke-miterlimit="4"/><g clip-path="url(#b6bd21c903)"><g clip-path="url(#d610144125)"><g clip-path="url(#dd205bc596)"><g transform="matrix(1, 0, 0, 1, 158, 229)"><g clip-path="url(#251a47d4d4)"><g clip-path="url(#d229acec1c)"><g clip-path="url(#534df22182)"><g clip-path="url(#f80fdecc34)"><path fill="#000000" d="M 1.078125 0.0273438 L 30.695312 0.722656 L 29.996094 30.339844 L 0.382812 29.640625 Z M 1.078125 0.0273438 " fill-opacity="1" fill-rule="nonzero"/></g></g></g></g></g></g></g></g><g clip-path="url(#b8ad0a20c7)"><g clip-path="url(#da8ea1ac4e)"><g transform="matrix(1, 0, 0, 1, 155, 153)"><g clip-path="url(#2f054554ee)"><g clip-path="url(#3076feebd6)"><g clip-path="url(#5f300afd88)"><path fill="#78777b" d="M 0.238281 0.847656 L 63.101562 0.847656 L 63.101562 63.710938 L 0.238281 63.710938 Z M 0.238281 0.847656 " fill-opacity="1" fill-rule="nonzero"/></g></g></g></g></g></g><path stroke-linecap="round" transform="matrix(-0.652673, -0.369483, 0.369483, -0.652673, 85.131899, 216.989357)" fill="none" stroke-linejoin="miter" d="M 20.458595 23.581776 C 50.398559 12.126779 80.32989 12.137948 110.266785 23.619216 " stroke="#000000" stroke-width="30" stroke-opacity="1" stroke-miterlimit="4"/><g clip-path="url(#7d980c85a4)"><g clip-path="url(#645b326bff)"><g transform="matrix(1, 0, 0, 1, 58, 181)"><g clip-path="url(#2530bd91e3)"><g clip-path="url(#f73797a112)"><g clip-path="url(#d2c8f5c1e3)"><path fill="#000000" d="M 0.152344 0.5 L 18.042969 0.5 L 18.042969 18.386719 L 0.152344 18.386719 Z M 0.152344 0.5 " fill-opacity="1" fill-rule="nonzero"/></g></g></g></g></g></g><path stroke-linecap="round" transform="matrix(0.673645, 0.329701, -0.329701, 0.673645, 287.117534, 145.924956)" fill="none" stroke-linejoin="miter" d="M 20.460849 23.584655 C 50.394424 12.129391 80.333093 12.141421 110.269889 23.618356 " stroke="#000000" stroke-width="30" stroke-opacity="1" stroke-miterlimit="4"/><g clip-path="url(#519b4e2093)"><g clip-path="url(#512c00c7c1)"><g clip-path="url(#44ec031ba9)"><g transform="matrix(1, 0, 0, 1, 297, 162)"><g clip-path="url(#db0a4c5799)"><g clip-path="url(#16a8c9e01d)"><g clip-path="url(#967d04d985)"><g clip-path="url(#b0f74d3740)"><path fill="#000000" d="M 19.171875 17.734375 L 1.316406 18.804688 L 0.242188 0.949219 L 18.101562 -0.125 Z M 19.171875 17.734375 " fill-opacity="1" fill-rule="nonzero"/></g></g></g></g></g></g></g></g><g clip-path="url(#696920ec17)"><g clip-path="url(#6e535488ac)"><g transform="matrix(1, 0, 0, 1, 14, 172)"><g clip-path="url(#533dcc55bb)"><g clip-path="url(#8564f78aa3)"><g clip-path="url(#9a7e2263e8)"><rect x="-96.5" width="540" fill="#000000" height="539.999987" y="-254.499998" fill-opacity="1"/></g></g></g></g></g></g><g clip-path="url(#cfa05edd63)"><g clip-path="url(#f237f70e84)"><g transform="matrix(1, 0, 0, 1, 283, 102)"><g clip-path="url(#0bcc012c68)"><g clip-path="url(#c8c99e2cce)"><g clip-path="url(#f54aa279d9)"><rect x="-365.5" width="540" fill="#000000" height="539.999987" y="-184.499998" fill-opacity="1"/></g></g></g></g></g></g><g clip-path="url(#01708578c5)"><g clip-path="url(#67811e3eab)"><g transform="matrix(1, 0, 0, 1, 300, 138)"><g clip-path="url(#dd7ff4937e)"><g clip-path="url(#ba39e72ad7)"><g clip-path="url(#eb0280b179)"><rect x="-382.5" width="540" fill="#000000" height="539.999987" y="-220.499998" fill-opacity="1"/></g></g></g></g></g></g><g clip-path="url(#90c28cd1f8)"><g clip-path="url(#cd2a0d52e6)"><g transform="matrix(1, 0, 0, 1, 11, 182)"><g clip-path="url(#63c81b4c24)"><g clip-path="url(#24162d5067)"><g clip-path="url(#96f16a63c8)"><rect x="-93.5" width="540" fill="#000000" height="539.999987" y="-264.499998" fill-opacity="1"/></g></g></g></g></g></g></svg>